<svg xmlns="http://www.w3.org/2000/svg" xmlns:xlink="http://www.w3.org/1999/xlink" width="500" zoomAndPan="magnify" viewBox="0 0 375 374.999991" height="500" preserveAspectRatio="xMidYMid meet" version="1.2"><g id="883892acca"><path style=" stroke:none;fill-rule:nonzero;fill:#ffffff;fill-opacity:1;" d="M 149.816406 100.117188 C 154.199219 100.117188 157.757812 96.558594 157.757812 92.175781 L 157.757812 76.800781 C 157.757812 56.914062 173.957031 40.714844 193.90625 40.714844 C 213.855469 40.714844 230.054688 56.914062 230.054688 76.800781 L 230.054688 92.175781 C 230.054688 96.558594 233.613281 100.117188 237.996094 100.117188 C 242.382812 100.117188 245.9375 96.558594 245.9375 92.175781 L 245.9375 78.960938 C 245.9375 51.199219 225.101562 26.800781 197.335938 24.960938 C 167.160156 22.988281 141.875 47.003906 141.875 76.800781 L 141.875 92.175781 C 141.875 96.558594 145.433594 100.117188 149.816406 100.117188 Z M 149.816406 100.117188 "/><path style=" stroke:none;fill-rule:nonzero;fill:#ffffff;fill-opacity:1;" d="M 316.839844 306.59375 L 299.367188 136.648438 C 297.972656 123.117188 286.597656 112.886719 273.003906 112.886719 L 114.808594 112.886719 C 101.214844 112.886719 89.839844 123.179688 88.445312 136.648438 L 84.058594 178.960938 C 81.136719 207.359375 108.140625 229.53125 135.394531 221.207031 L 150.195312 216.699219 C 167.03125 211.550781 185.839844 220.066406 192.445312 238.742188 C 194.730469 245.222656 194.414062 252.339844 192.382812 258.945312 L 185.839844 280.292969 C 176.816406 309.773438 198.863281 339.566406 229.675781 339.566406 L 287.105469 339.566406 C 304.832031 339.503906 318.683594 324.191406 316.839844 306.59375 Z M 316.839844 306.59375 "/><path style=" stroke:none;fill-rule:nonzero;fill:#ffffff;fill-opacity:1;" d="M 155.789062 234.867188 L 70.210938 260.980469 C 57.757812 264.792969 56.867188 282.070312 68.875 287.15625 L 89.269531 295.730469 C 100.070312 300.304688 108.710938 308.882812 113.285156 319.746094 L 121.863281 340.140625 C 126.945312 352.148438 144.226562 351.257812 148.035156 338.804688 L 174.148438 253.226562 C 177.640625 241.984375 167.097656 231.4375 155.789062 234.867188 Z M 155.789062 234.867188 "/></g></svg>