<svg xmlns="http://www.w3.org/2000/svg" xmlns:xlink="http://www.w3.org/1999/xlink" width="500" zoomAndPan="magnify" viewBox="0 0 375 374.999991" height="500" preserveAspectRatio="xMidYMid meet" version="1.0"><defs><g/></defs><path fill="#ff2626" d="M 96.042969 137.230469 C 97.375 137.230469 98.457031 136.148438 98.457031 134.816406 L 98.457031 130.144531 C 98.457031 124.105469 103.378906 119.183594 109.4375 119.183594 C 115.5 119.183594 120.421875 124.105469 120.421875 130.144531 L 120.421875 134.816406 C 120.421875 136.148438 121.503906 137.230469 122.835938 137.230469 C 124.167969 137.230469 125.246094 136.148438 125.246094 134.816406 L 125.246094 130.800781 C 125.246094 122.367188 118.917969 114.953125 110.480469 114.394531 C 101.3125 113.796875 93.628906 121.09375 93.628906 130.144531 L 93.628906 134.816406 C 93.628906 136.148438 94.710938 137.230469 96.042969 137.230469 Z M 96.042969 137.230469 " fill-opacity="1" fill-rule="nonzero"/><path fill="#ff2626" d="M 146.789062 199.960938 L 141.480469 148.328125 C 141.054688 144.214844 137.601562 141.109375 133.46875 141.109375 L 85.40625 141.109375 C 81.277344 141.109375 77.824219 144.234375 77.398438 148.328125 L 76.066406 161.183594 C 75.179688 169.8125 83.382812 176.546875 91.660156 174.019531 L 96.160156 172.648438 C 101.273438 171.085938 106.988281 173.671875 108.996094 179.347656 C 109.691406 181.316406 109.59375 183.476562 108.976562 185.484375 L 106.988281 191.96875 C 104.246094 200.925781 110.945312 209.976562 120.304688 209.976562 L 137.753906 209.976562 C 143.140625 209.957031 147.347656 205.308594 146.789062 199.960938 Z M 146.789062 199.960938 " fill-opacity="1" fill-rule="nonzero"/><path fill="#ff2626" d="M 97.859375 178.167969 L 71.859375 186.101562 C 68.074219 187.257812 67.804688 192.507812 71.453125 194.054688 L 77.648438 196.660156 C 80.929688 198.050781 83.554688 200.65625 84.945312 203.957031 L 87.550781 210.152344 C 89.09375 213.800781 94.34375 213.527344 95.503906 209.746094 L 103.4375 183.746094 C 104.496094 180.332031 101.292969 177.125 97.859375 178.167969 Z M 97.859375 178.167969 " fill-opacity="1" fill-rule="nonzero"/><g fill="#000000" fill-opacity="1"><g transform="translate(155.348301, 192.666652)"><g><path d="M 8.28125 -27.921875 L 8.28125 -10.640625 C 8.28125 -8.742188 8.769531 -7.296875 9.75 -6.296875 C 10.738281 -5.296875 12.128906 -4.796875 13.921875 -4.796875 C 15.734375 -4.796875 17.128906 -5.296875 18.109375 -6.296875 C 19.097656 -7.296875 19.59375 -8.742188 19.59375 -10.640625 L 19.59375 -27.921875 L 25.234375 -27.921875 L 25.234375 -10.6875 C 25.234375 -8.3125 24.71875 -6.300781 23.6875 -4.65625 C 22.664062 -3.019531 21.296875 -1.785156 19.578125 -0.953125 C 17.859375 -0.128906 15.945312 0.28125 13.84375 0.28125 C 11.757812 0.28125 9.867188 -0.128906 8.171875 -0.953125 C 6.484375 -1.785156 5.144531 -3.019531 4.15625 -4.65625 C 3.175781 -6.300781 2.6875 -8.3125 2.6875 -10.6875 L 2.6875 -27.921875 Z M 8.28125 -27.921875 "/></g></g></g><g fill="#000000" fill-opacity="1"><g transform="translate(183.225534, 192.666652)"><g><path d="M 33.203125 -27.921875 L 33.203125 0 L 27.59375 0 L 27.59375 -18.15625 L 20.125 0 L 15.875 0 L 8.359375 -18.15625 L 8.359375 0 L 2.765625 0 L 2.765625 -27.921875 L 9.125 -27.921875 L 18 -7.15625 L 26.875 -27.921875 Z M 33.203125 -27.921875 "/></g></g></g><g fill="#000000" fill-opacity="1"><g transform="translate(219.181964, 192.666652)"><g><path d="M 1.3125 -11.15625 C 1.3125 -13.394531 1.757812 -15.378906 2.65625 -17.109375 C 3.550781 -18.847656 4.765625 -20.179688 6.296875 -21.109375 C 7.828125 -22.046875 9.539062 -22.515625 11.4375 -22.515625 C 13.09375 -22.515625 14.539062 -22.179688 15.78125 -21.515625 C 17.019531 -20.847656 18.015625 -20.007812 18.765625 -19 L 18.765625 -22.15625 L 24.40625 -22.15625 L 24.40625 0 L 18.765625 0 L 18.765625 -3.234375 C 18.046875 -2.203125 17.050781 -1.34375 15.78125 -0.65625 C 14.507812 0.0195312 13.050781 0.359375 11.40625 0.359375 C 9.53125 0.359375 7.828125 -0.117188 6.296875 -1.078125 C 4.765625 -2.035156 3.550781 -3.390625 2.65625 -5.140625 C 1.757812 -6.890625 1.3125 -8.894531 1.3125 -11.15625 Z M 18.765625 -11.078125 C 18.765625 -12.441406 18.492188 -13.609375 17.953125 -14.578125 C 17.421875 -15.554688 16.703125 -16.300781 15.796875 -16.8125 C 14.890625 -17.332031 13.914062 -17.59375 12.875 -17.59375 C 11.832031 -17.59375 10.875 -17.335938 10 -16.828125 C 9.125 -16.328125 8.410156 -15.585938 7.859375 -14.609375 C 7.316406 -13.640625 7.046875 -12.488281 7.046875 -11.15625 C 7.046875 -9.820312 7.316406 -8.65625 7.859375 -7.65625 C 8.410156 -6.65625 9.128906 -5.890625 10.015625 -5.359375 C 10.910156 -4.828125 11.863281 -4.5625 12.875 -4.5625 C 13.914062 -4.5625 14.890625 -4.820312 15.796875 -5.34375 C 16.703125 -5.863281 17.421875 -6.609375 17.953125 -7.578125 C 18.492188 -8.554688 18.765625 -9.722656 18.765625 -11.078125 Z M 18.765625 -11.078125 "/></g></g></g><g fill="#000000" fill-opacity="1"><g transform="translate(246.299265, 192.666652)"><g><path d="M 8.359375 -18.71875 C 9.078125 -19.894531 10.015625 -20.816406 11.171875 -21.484375 C 12.335938 -22.148438 13.664062 -22.484375 15.15625 -22.484375 L 15.15625 -16.59375 L 13.6875 -16.59375 C 11.925781 -16.59375 10.597656 -16.179688 9.703125 -15.359375 C 8.804688 -14.535156 8.359375 -13.097656 8.359375 -11.046875 L 8.359375 0 L 2.765625 0 L 2.765625 -22.15625 L 8.359375 -22.15625 Z M 8.359375 -18.71875 "/></g></g></g><g fill="#000000" fill-opacity="1"><g transform="translate(262.457657, 192.666652)"><g><path d="M 9.28125 -17.5625 L 9.28125 -6.84375 C 9.28125 -6.09375 9.457031 -5.550781 9.8125 -5.21875 C 10.175781 -4.882812 10.785156 -4.71875 11.640625 -4.71875 L 14.234375 -4.71875 L 14.234375 0 L 10.71875 0 C 6 0 3.640625 -2.289062 3.640625 -6.875 L 3.640625 -17.5625 L 1 -17.5625 L 1 -22.15625 L 3.640625 -22.15625 L 3.640625 -27.640625 L 9.28125 -27.640625 L 9.28125 -22.15625 L 14.234375 -22.15625 L 14.234375 -17.5625 Z M 9.28125 -17.5625 "/></g></g></g></svg>