<svg xmlns="http://www.w3.org/2000/svg" xmlns:xlink="http://www.w3.org/1999/xlink" width="500" zoomAndPan="magnify" viewBox="0 0 375 374.999991" height="500" preserveAspectRatio="xMidYMid meet" version="1.2"><defs/><g id="47397b6915"><path style=" stroke:none;fill-rule:nonzero;fill:#ffffff;fill-opacity:1;" d="M 95.953125 137.152344 C 97.277344 137.152344 98.355469 136.074219 98.355469 134.746094 L 98.355469 130.089844 C 98.355469 124.070312 103.261719 119.164062 109.304688 119.164062 C 115.34375 119.164062 120.25 124.070312 120.25 130.089844 L 120.25 134.746094 C 120.25 136.074219 121.328125 137.152344 122.65625 137.152344 C 123.980469 137.152344 125.058594 136.074219 125.058594 134.746094 L 125.058594 130.746094 C 125.058594 122.335938 118.75 114.949219 110.34375 114.390625 C 101.203125 113.796875 93.546875 121.066406 93.546875 130.089844 L 93.546875 134.746094 C 93.546875 136.074219 94.625 137.152344 95.953125 137.152344 Z M 95.953125 137.152344 "/><path style=" stroke:none;fill-rule:nonzero;fill:#ffffff;fill-opacity:1;" d="M 146.53125 199.679688 L 141.238281 148.214844 C 140.816406 144.117188 137.371094 141.019531 133.253906 141.019531 L 85.351562 141.019531 C 81.234375 141.019531 77.789062 144.136719 77.367188 148.214844 L 76.039062 161.027344 C 75.152344 169.625 83.332031 176.339844 91.582031 173.820312 L 96.066406 172.453125 C 101.164062 170.898438 106.859375 173.476562 108.859375 179.132812 C 109.554688 181.09375 109.457031 183.25 108.839844 185.25 L 106.859375 191.714844 C 104.128906 200.640625 110.804688 209.664062 120.132812 209.664062 L 137.527344 209.664062 C 142.894531 209.644531 147.089844 205.007812 146.53125 199.679688 Z M 146.53125 199.679688 "/><path style=" stroke:none;fill-rule:nonzero;fill:#ffffff;fill-opacity:1;" d="M 97.757812 177.957031 L 71.84375 185.863281 C 68.074219 187.019531 67.804688 192.25 71.441406 193.792969 L 77.617188 196.386719 C 80.886719 197.773438 83.503906 200.371094 84.890625 203.660156 L 87.484375 209.835938 C 89.023438 213.472656 94.257812 213.203125 95.414062 209.433594 L 103.320312 183.515625 C 104.378906 180.113281 101.183594 176.917969 97.757812 177.957031 Z M 97.757812 177.957031 "/><g style="fill:#ffffff;fill-opacity:1;"><g transform="translate(155.348301, 192.666652)"><path style="stroke:none" d="M 8.28125 -27.921875 L 8.28125 -10.640625 C 8.28125 -8.742188 8.769531 -7.296875 9.75 -6.296875 C 10.738281 -5.296875 12.128906 -4.796875 13.921875 -4.796875 C 15.734375 -4.796875 17.128906 -5.296875 18.109375 -6.296875 C 19.097656 -7.296875 19.59375 -8.742188 19.59375 -10.640625 L 19.59375 -27.921875 L 25.234375 -27.921875 L 25.234375 -10.6875 C 25.234375 -8.3125 24.71875 -6.300781 23.6875 -4.65625 C 22.664062 -3.019531 21.296875 -1.785156 19.578125 -0.953125 C 17.859375 -0.128906 15.945312 0.28125 13.84375 0.28125 C 11.757812 0.28125 9.867188 -0.128906 8.171875 -0.953125 C 6.484375 -1.785156 5.144531 -3.019531 4.15625 -4.65625 C 3.175781 -6.300781 2.6875 -8.3125 2.6875 -10.6875 L 2.6875 -27.921875 Z M 8.28125 -27.921875 "/></g></g><g style="fill:#ffffff;fill-opacity:1;"><g transform="translate(183.225534, 192.666652)"><path style="stroke:none" d="M 33.203125 -27.921875 L 33.203125 0 L 27.59375 0 L 27.59375 -18.15625 L 20.125 0 L 15.875 0 L 8.359375 -18.15625 L 8.359375 0 L 2.765625 0 L 2.765625 -27.921875 L 9.125 -27.921875 L 18 -7.15625 L 26.875 -27.921875 Z M 33.203125 -27.921875 "/></g></g><g style="fill:#ffffff;fill-opacity:1;"><g transform="translate(219.181964, 192.666652)"><path style="stroke:none" d="M 1.3125 -11.15625 C 1.3125 -13.394531 1.757812 -15.378906 2.65625 -17.109375 C 3.550781 -18.847656 4.765625 -20.179688 6.296875 -21.109375 C 7.828125 -22.046875 9.539062 -22.515625 11.4375 -22.515625 C 13.09375 -22.515625 14.539062 -22.179688 15.78125 -21.515625 C 17.019531 -20.847656 18.015625 -20.007812 18.765625 -19 L 18.765625 -22.15625 L 24.40625 -22.15625 L 24.40625 0 L 18.765625 0 L 18.765625 -3.234375 C 18.046875 -2.203125 17.050781 -1.34375 15.78125 -0.65625 C 14.507812 0.0195312 13.050781 0.359375 11.40625 0.359375 C 9.53125 0.359375 7.828125 -0.117188 6.296875 -1.078125 C 4.765625 -2.035156 3.550781 -3.390625 2.65625 -5.140625 C 1.757812 -6.890625 1.3125 -8.894531 1.3125 -11.15625 Z M 18.765625 -11.078125 C 18.765625 -12.441406 18.492188 -13.609375 17.953125 -14.578125 C 17.421875 -15.554688 16.703125 -16.300781 15.796875 -16.8125 C 14.890625 -17.332031 13.914062 -17.59375 12.875 -17.59375 C 11.832031 -17.59375 10.875 -17.335938 10 -16.828125 C 9.125 -16.328125 8.410156 -15.585938 7.859375 -14.609375 C 7.316406 -13.640625 7.046875 -12.488281 7.046875 -11.15625 C 7.046875 -9.820312 7.316406 -8.65625 7.859375 -7.65625 C 8.410156 -6.65625 9.128906 -5.890625 10.015625 -5.359375 C 10.910156 -4.828125 11.863281 -4.5625 12.875 -4.5625 C 13.914062 -4.5625 14.890625 -4.820312 15.796875 -5.34375 C 16.703125 -5.863281 17.421875 -6.609375 17.953125 -7.578125 C 18.492188 -8.554688 18.765625 -9.722656 18.765625 -11.078125 Z M 18.765625 -11.078125 "/></g></g><g style="fill:#ffffff;fill-opacity:1;"><g transform="translate(246.299265, 192.666652)"><path style="stroke:none" d="M 8.359375 -18.71875 C 9.078125 -19.894531 10.015625 -20.816406 11.171875 -21.484375 C 12.335938 -22.148438 13.664062 -22.484375 15.15625 -22.484375 L 15.15625 -16.59375 L 13.6875 -16.59375 C 11.925781 -16.59375 10.597656 -16.179688 9.703125 -15.359375 C 8.804688 -14.535156 8.359375 -13.097656 8.359375 -11.046875 L 8.359375 0 L 2.765625 0 L 2.765625 -22.15625 L 8.359375 -22.15625 Z M 8.359375 -18.71875 "/></g></g><g style="fill:#ffffff;fill-opacity:1;"><g transform="translate(262.457657, 192.666652)"><path style="stroke:none" d="M 9.28125 -17.5625 L 9.28125 -6.84375 C 9.28125 -6.09375 9.457031 -5.550781 9.8125 -5.21875 C 10.175781 -4.882812 10.785156 -4.71875 11.640625 -4.71875 L 14.234375 -4.71875 L 14.234375 0 L 10.71875 0 C 6 0 3.640625 -2.289062 3.640625 -6.875 L 3.640625 -17.5625 L 1 -17.5625 L 1 -22.15625 L 3.640625 -22.15625 L 3.640625 -27.640625 L 9.28125 -27.640625 L 9.28125 -22.15625 L 14.234375 -22.15625 L 14.234375 -17.5625 Z M 9.28125 -17.5625 "/></g></g></g></svg>