<svg width="25" height="25" viewBox="0 0 25 25" fill="none" xmlns="http://www.w3.org/2000/svg">
<path d="M22.9167 10.9375V6.24996C22.9167 5.69743 22.6972 5.16752 22.3065 4.77682C21.9158 4.38612 21.3859 4.16663 20.8334 4.16663H4.16671C3.61417 4.16663 3.08427 4.38612 2.69357 4.77682C2.30287 5.16752 2.08337 5.69743 2.08337 6.24996V18.75C2.08337 19.8958 3.02087 20.8333 4.16671 20.8333H17.1875M22.9167 7.29163L13.573 13.2291C13.2514 13.4306 12.8795 13.5375 12.5 13.5375C12.1205 13.5375 11.7487 13.4306 11.4271 13.2291L2.08337 7.29163M18.75 15.9166C18.9584 15.5 19.2709 15.0833 19.6875 14.875C20.1189 14.6256 20.6225 14.5309 21.115 14.6067C21.6075 14.6825 22.0594 14.9241 22.3959 15.2916C22.7084 15.7083 22.9167 16.125 22.9167 16.6458C22.9167 18 20.8334 18.7291 20.8334 18.7291M20.8334 22.9166V22.927" stroke="white" stroke-width="2" stroke-linecap="round" stroke-linejoin="round"/>
</svg>
