<svg width="25" height="25" viewBox="0 0 25 25" fill="none" xmlns="http://www.w3.org/2000/svg">
<path d="M20.8333 10.4167C20.8333 15.6177 15.0635 21.0344 13.126 22.7073C12.9455 22.8431 12.7258 22.9164 12.5 22.9164C12.2741 22.9164 12.0544 22.8431 11.8739 22.7073C9.93642 21.0344 4.16663 15.6177 4.16663 10.4167C4.16663 8.20657 5.0446 6.08695 6.6074 4.52415C8.17021 2.96135 10.2898 2.08337 12.5 2.08337C14.7101 2.08337 16.8297 2.96135 18.3925 4.52415C19.9553 6.08695 20.8333 8.20657 20.8333 10.4167Z" stroke="white" stroke-width="2" stroke-linecap="round" stroke-linejoin="round"/>
<path d="M12.5 13.5417C14.2258 13.5417 15.625 12.1426 15.625 10.4167C15.625 8.69082 14.2258 7.29171 12.5 7.29171C10.7741 7.29171 9.37496 8.69082 9.37496 10.4167C9.37496 12.1426 10.7741 13.5417 12.5 13.5417Z" stroke="white" stroke-width="2" stroke-linecap="round" stroke-linejoin="round"/>
</svg>
