<svg width="25" height="25" viewBox="0 0 25 25" fill="none" xmlns="http://www.w3.org/2000/svg">
<path d="M14.4084 17.2584C14.6235 17.3572 14.8659 17.3797 15.0956 17.3224C15.3252 17.265 15.5285 17.1311 15.6719 16.9427L16.0417 16.4584C16.2358 16.1996 16.4874 15.9896 16.7767 15.845C17.066 15.7003 17.3849 15.625 17.7084 15.625H20.8334C21.3859 15.625 21.9158 15.8445 22.3065 16.2352C22.6972 16.6259 22.9167 17.1558 22.9167 17.7084V20.8334C22.9167 21.3859 22.6972 21.9158 22.3065 22.3065C21.9158 22.6972 21.3859 22.9167 20.8334 22.9167C15.8606 22.9167 11.0914 20.9413 7.57512 17.425C4.05881 13.9087 2.08337 9.13952 2.08337 4.16671C2.08337 3.61417 2.30287 3.08427 2.69357 2.69357C3.08427 2.30287 3.61417 2.08337 4.16671 2.08337H7.29171C7.84424 2.08337 8.37415 2.30287 8.76485 2.69357C9.15555 3.08427 9.37504 3.61417 9.37504 4.16671V7.29171C9.37504 7.61513 9.29974 7.93412 9.1551 8.2234C9.01046 8.51268 8.80045 8.76432 8.54171 8.95837L8.05421 9.324C7.86297 9.47002 7.72819 9.67773 7.67274 9.91186C7.61729 10.146 7.64461 10.3921 7.75004 10.6084C9.17367 13.4999 11.5151 15.8384 14.4084 17.2584Z" stroke="white" stroke-width="2" stroke-linecap="round" stroke-linejoin="round"/>
</svg>
