<svg width="25" height="24" viewBox="0 0 25 24" fill="none" xmlns="http://www.w3.org/2000/svg">
<path d="M2.46667 2.05H4.46668L7.12667 14.47C7.22425 14.9249 7.47735 15.3315 7.84239 15.6199C8.20743 15.9082 8.66158 16.0604 9.12667 16.05H18.9067C19.3619 16.0493 19.8032 15.8933 20.1577 15.6078C20.5122 15.3224 20.7588 14.9245 20.8567 14.48L22.5067 7.05H5.53667M9.41667 21C9.41667 21.5523 8.96896 22 8.41667 22C7.86439 22 7.41667 21.5523 7.41667 21C7.41667 20.4477 7.86439 20 8.41667 20C8.96896 20 9.41667 20.4477 9.41667 21ZM20.4167 21C20.4167 21.5523 19.969 22 19.4167 22C18.8644 22 18.4167 21.5523 18.4167 21C18.4167 20.4477 18.8644 20 19.4167 20C19.969 20 20.4167 20.4477 20.4167 21Z" stroke="#ffffff" stroke-width="2" stroke-linecap="round" stroke-linejoin="round"/>
</svg>
