<svg width="25" height="25" viewBox="0 0 25 25" fill="none" xmlns="http://www.w3.org/2000/svg">
<path d="M2.60417 17.7083C1.87649 14.2742 1.87649 10.7258 2.60417 7.29167C2.69979 6.94293 2.88453 6.62508 3.14022 6.36938C3.39592 6.11368 3.71377 5.92895 4.06251 5.83333C9.64943 4.90777 15.3506 4.90777 20.9375 5.83333C21.2862 5.92895 21.6041 6.11368 21.8598 6.36938C22.1155 6.62508 22.3002 6.94293 22.3958 7.29167C23.1235 10.7258 23.1235 14.2742 22.3958 17.7083C22.3002 18.0571 22.1155 18.3749 21.8598 18.6306C21.6041 18.8863 21.2862 19.0711 20.9375 19.1667C15.3506 20.0924 9.64942 20.0924 4.06251 19.1667C3.71377 19.0711 3.39592 18.8863 3.14022 18.6306C2.88453 18.3749 2.69979 18.0571 2.60417 17.7083Z" stroke="white" stroke-width="2" stroke-linecap="round" stroke-linejoin="round"/>
<path d="M10.4167 15.625L15.625 12.5L10.4167 9.375V15.625Z" stroke="white" stroke-width="2" stroke-linecap="round" stroke-linejoin="round"/>
</svg>
